FILE "Masked Rider, The - Kamen Rider ZO (1994)(Sega)(US).img" BINARY
  TRACK 01 MODE1/2352
    INDEX 01 00:00:00
  TRACK 02 AUDIO
    PREGAP 00:02:00
    INDEX 01 41:40:46
  TRACK 03 AUDIO
    INDEX 00 41:55:06
    INDEX 01 41:57:06
  TRACK 04 AUDIO
    INDEX 00 42:10:33
    INDEX 01 42:12:33
  TRACK 05 AUDIO
    INDEX 00 43:15:26
    INDEX 01 43:17:26
